<?xml version="1.0" encoding="UTF-8" standalone="no"?>
<svg
   height="40"
   viewBox="0 -960 640 800"
   width="32"
   version="1.1"
   id="svg4"
   sodipodi:docname="point.svg"
   inkscape:version="1.2.2 (b0a8486541, 2022-12-01)"
   xmlns:inkscape="http://www.inkscape.org/namespaces/inkscape"
   xmlns:sodipodi="http://sodipodi.sourceforge.net/DTD/sodipodi-0.dtd"
   xmlns="http://www.w3.org/2000/svg"
   xmlns:svg="http://www.w3.org/2000/svg">
  <defs
     id="defs8" />
  <sodipodi:namedview
     id="namedview6"
     pagecolor="#505050"
     bordercolor="#eeeeee"
     borderopacity="1"
     inkscape:showpageshadow="0"
     inkscape:pageopacity="0"
     inkscape:pagecheckerboard="0"
     inkscape:deskcolor="#505050"
     showgrid="false"
     inkscape:zoom="9.1041667"
     inkscape:cx="-10.654462"
     inkscape:cy="26.086957"
     inkscape:window-width="1914"
     inkscape:window-height="1031"
     inkscape:window-x="0"
     inkscape:window-y="46"
     inkscape:window-maximized="1"
     inkscape:current-layer="svg4" />
  <path
     d="m 480.089,-490 q 28.911,0 49.411,-20.589 20.5,-20.588 20.5,-49.5 0,-28.911 -20.589,-49.411 -20.588,-20.5 -49.5,-20.5 -28.911,0 -49.411,20.589 -20.5,20.588 -20.5,49.5 0,28.911 20.589,49.411 20.588,20.5 49.5,20.5 z M 480,-80 Q 319,-217 239.5,-334.5 160,-452 160,-552 q 0,-150 96.5,-239 96.5,-89 223.5,-89 127,0 223.5,89 96.5,89 96.5,239 0,100 -79.5,217.5 Q 641,-217 480,-80 Z"
     id="path2"
     transform="translate(-160,-80)" />
</svg>
